<?xml version="1.0" standalone="no"?>
<!DOCTYPE svg PUBLIC "-//W3C//DTD SVG 20010904//EN"
 "http://www.w3.org/TR/2001/REC-SVG-20010904/DTD/svg10.dtd">
<svg version="1.0" xmlns="http://www.w3.org/2000/svg"
 width="577.000000pt" height="577.000000pt" viewBox="0 0 577.000000 577.000000"
 preserveAspectRatio="xMidYMid meet">
<metadata>
Created by potrace 1.14, written by Peter Selinger 2001-2017
</metadata>
<g transform="translate(0.000000,577.000000) scale(0.100000,-0.100000)"
fill="#000000" stroke="none">
<path d="M2227 3656 l-204 -201 2 -730 c1 -401 3 -732 4 -735 1 -4 16 12 69
75 48 57 187 221 192 225 3 3 30 34 60 70 30 36 57 67 60 70 3 3 25 30 50 60
25 29 56 66 70 81 l25 28 385 0 c212 0 410 0 441 1 l57 0 -1 220 c0 195 -2
220 -16 221 -9 0 -205 1 -437 1 l-421 1 -1 179 0 178 186 0 c103 1 312 1 465
1 213 -1 277 2 278 12 4 45 3 430 -1 436 -3 4 -242 7 -532 7 l-527 0 -204
-200z"/>
<path d="M3780 3821 c-4 -273 0 -1244 4 -1249 3 -3 123 -5 265 -5 l259 0 -8
-21 c-5 -12 -33 -86 -63 -166 -31 -80 -80 -210 -110 -290 l-55 -145 121 -5
c67 -3 123 -4 125 -4 2 1 3 144 4 318 0 174 1 316 3 316 2 0 36 -39 76 -87 41
-49 76 -90 79 -93 3 -3 41 -47 85 -99 44 -51 91 -106 105 -121 14 -15 63 -73
110 -128 l85 -102 338 0 c377 0 366 -2 304 67 -19 21 -45 51 -58 67 -13 16
-29 34 -35 40 -5 6 -59 67 -119 136 -60 69 -114 130 -120 136 -5 6 -39 44 -75
84 -36 40 -76 85 -90 100 -14 15 -45 49 -69 76 -92 104 -197 218 -219 241 -13
13 -22 27 -20 32 3 9 39 52 189 227 l97 112 -29 108 c-16 60 -38 143 -49 184
-12 41 -23 84 -25 95 -9 42 -43 171 -50 188 -7 17 -25 24 -25 8 0 -4 -10 -19
-22 -33 -13 -13 -34 -38 -46 -55 -31 -41 -286 -358 -303 -377 -8 -9 -34 -42
-59 -75 -25 -33 -48 -60 -52 -61 -4 0 -7 135 -6 301 0 165 -3 303 -7 307 -4 4
-126 7 -271 8 l-264 0 0 -35z"/>
<path d="M1005 3753 c-123 -266 -226 -499 -227 -513 -1 -8 45 -129 100 -268
56 -139 102 -256 102 -260 0 -4 -101 -6 -223 -6 l-224 2 -68 -152 c-37 -83
-83 -184 -102 -224 -18 -41 -33 -74 -33 -76 0 -1 185 -2 412 -1 260 0 415 -4
423 -10 6 -5 37 -76 69 -157 l59 -148 288 0 c159 0 289 1 289 3 0 1 -25 58
-56 127 -61 136 -293 656 -325 727 -10 23 -27 62 -38 86 -144 324 -319 716
-342 766 -17 35 -37 82 -46 105 -9 22 -19 45 -23 49 -4 5 -20 -18 -35 -50z"/>
</g>
</svg>
